<svg width="106" height="106" viewBox="0 0 106 106" fill="none" xmlns="http://www.w3.org/2000/svg">
<path d="M61.65 98.0168C60.7709 99.5325 59.5092 100.791 57.9911 101.665C56.4731 102.54 54.7519 103 53 103C51.2481 103 49.527 102.54 48.0089 101.665C46.4908 100.791 45.2291 99.5325 44.35 98.0168M103 78.0133H3C6.97825 78.0133 10.7936 76.4327 13.6066 73.6191C16.4196 70.8056 18 66.9896 18 63.0106V38.0062C18 28.722 21.6875 19.818 28.2513 13.2531C34.815 6.68814 43.7174 3 53 3C62.2826 3 71.185 6.68814 77.7487 13.2531C84.3125 19.818 88 28.722 88 38.0062V63.0106C88 66.9896 89.5804 70.8056 92.3934 73.6191C95.2064 76.4327 99.0218 78.0133 103 78.0133Z" stroke="#4A4A4A" stroke-width="6" stroke-linecap="round" stroke-linejoin="round"/>
</svg>
