<svg width="108" height="108" viewBox="0 0 108 108" fill="none" xmlns="http://www.w3.org/2000/svg">
<path d="M54.0644 67.4194C61.5114 67.4194 67.5483 61.3825 67.5483 53.9355C67.5483 46.4886 61.5114 40.4517 54.0644 40.4517C46.6175 40.4517 40.5806 46.4886 40.5806 53.9355C40.5806 61.3825 46.6175 67.4194 54.0644 67.4194Z" stroke="#4A4A4A" stroke-width="6" stroke-linecap="round" stroke-linejoin="round"/>
<path d="M87.3246 67.4194C86.7263 68.775 86.5478 70.2788 86.8122 71.7368C87.0766 73.1949 87.7716 74.5403 88.8078 75.5996L89.0775 75.8692C89.9133 76.7041 90.5763 77.6955 91.0287 78.7868C91.4811 79.8781 91.7139 81.0478 91.7139 82.2291C91.7139 83.4105 91.4811 84.5802 91.0287 85.6715C90.5763 86.7628 89.9133 87.7542 89.0775 88.589C88.2426 89.4248 87.2512 90.0879 86.16 90.5402C85.0687 90.9926 83.8989 91.2255 82.7176 91.2255C81.5363 91.2255 80.3665 90.9926 79.2753 90.5402C78.184 90.0879 77.1926 89.4248 76.3577 88.589L76.088 88.3193C75.0288 87.2832 73.6833 86.5881 72.2253 86.3237C70.7673 86.0593 69.2635 86.2378 67.9078 86.8361C66.5785 87.4059 65.4447 88.3519 64.6461 89.5578C63.8475 90.7636 63.419 92.1767 63.4132 93.623V94.3871C63.4132 96.7712 62.4661 99.0576 60.7803 100.743C59.0945 102.429 56.8081 103.376 54.424 103.376C52.0399 103.376 49.7534 102.429 48.0676 100.743C46.3818 99.0576 45.4347 96.7712 45.4347 94.3871V93.9826C45.3999 92.4949 44.9184 91.0521 44.0527 89.8417C43.187 88.6313 41.9772 87.7094 40.5805 87.1957C39.2249 86.5974 37.7211 86.4189 36.263 86.6833C34.805 86.9477 33.4596 87.6427 32.4003 88.6789L32.1306 88.9486C31.2958 89.7844 30.3044 90.4474 29.2131 90.8998C28.1218 91.3522 26.9521 91.585 25.7707 91.585C24.5894 91.585 23.4197 91.3522 22.3284 90.8998C21.2371 90.4474 20.2457 89.7844 19.4108 88.9486C18.5751 88.1137 17.912 87.1223 17.4596 86.0311C17.0073 84.9398 16.7744 83.77 16.7744 82.5887C16.7744 81.4074 17.0073 80.2376 17.4596 79.1464C17.912 78.0551 18.5751 77.0637 19.4108 76.2288L19.6805 75.9591C20.7167 74.8998 21.4118 73.5544 21.6762 72.0964C21.9405 70.6384 21.7621 69.1346 21.1637 67.7789C20.594 66.4496 19.648 65.3158 18.4421 64.5172C17.2362 63.7186 15.8232 63.2901 14.3769 63.2843H13.6128C11.2287 63.2843 8.94224 62.3372 7.25642 60.6514C5.57061 58.9656 4.62354 56.6791 4.62354 54.2951C4.62354 51.911 5.57061 49.6245 7.25642 47.9387C8.94224 46.2529 11.2287 45.3058 13.6128 45.3058H14.0173C15.505 45.271 16.9478 44.7895 18.1582 43.9238C19.3686 43.0581 20.2905 41.8483 20.8042 40.4516C21.4025 39.096 21.581 37.5922 21.3166 36.1341C21.0522 34.6761 20.3571 33.3307 19.321 32.2714L19.0513 32.0017C18.2155 31.1669 17.5524 30.1755 17.1001 29.0842C16.6477 27.9929 16.4148 26.8232 16.4148 25.6418C16.4148 24.4605 16.6477 23.2908 17.1001 22.1995C17.5524 21.1082 18.2155 20.1168 19.0513 19.2819C19.8861 18.4462 20.8775 17.7831 21.9688 17.3307C23.0601 16.8784 24.2298 16.6455 25.4112 16.6455C26.5925 16.6455 27.7622 16.8784 28.8535 17.3307C29.9448 17.7831 30.9362 18.4462 31.7711 19.2819L32.0407 19.5516C33.1 20.5878 34.4454 21.2829 35.9035 21.5472C37.3615 21.8116 38.8653 21.6331 40.221 21.0348H40.5805C41.9099 20.4651 43.0437 19.5191 43.8422 18.3132C44.6408 17.1073 45.0694 15.6943 45.0751 14.248V13.4839C45.0751 11.0998 46.0222 8.81333 47.708 7.12752C49.3938 5.44171 51.6803 4.49463 54.0644 4.49463C56.4485 4.49463 58.7349 5.44171 60.4207 7.12752C62.1066 8.81333 63.0536 11.0998 63.0536 13.4839V13.8884C63.0594 15.3347 63.488 16.7478 64.2865 17.9536C65.0851 19.1595 66.2189 20.1055 67.5483 20.6753C68.9039 21.2736 70.4077 21.452 71.8657 21.1877C73.3238 20.9233 74.6692 20.2282 75.7285 19.192L75.9981 18.9224C76.833 18.0866 77.8244 17.4235 78.9157 16.9712C80.007 16.5188 81.1767 16.2859 82.358 16.2859C83.5394 16.2859 84.7091 16.5188 85.8004 16.9712C86.8917 17.4235 87.8831 18.0866 88.7179 18.9224C89.5537 19.7572 90.2168 20.7486 90.6691 21.8399C91.1215 22.9312 91.3544 24.1009 91.3544 25.2823C91.3544 26.4636 91.1215 27.6333 90.6691 28.7246C90.2168 29.8159 89.5537 30.8073 88.7179 31.6422L88.4483 31.9118C87.4121 32.9711 86.717 34.3165 86.4526 35.7746C86.1883 37.2326 86.3667 38.7364 86.965 40.092V40.4516C87.5348 41.781 88.4808 42.9147 89.6867 43.7133C90.8925 44.5119 92.3056 44.9405 93.7519 44.9462H94.516C96.9001 44.9462 99.1865 45.8933 100.872 47.5791C102.558 49.2649 103.505 51.5514 103.505 53.9355C103.505 56.3196 102.558 58.606 100.872 60.2918C99.1865 61.9776 96.9001 62.9247 94.516 62.9247H94.1115C92.6652 62.9305 91.2521 63.3591 90.0463 64.1576C88.8404 64.9562 87.8944 66.09 87.3246 67.4194V67.4194Z" stroke="#4A4A4A" stroke-width="6" stroke-linecap="round" stroke-linejoin="round"/>
</svg>
